HIERARCHY
ROOT hip
{
	OFFSET 0.000000 0.000000 0.000000
	CHANNELS 6 Xposition Yposition Zposition Zrotation Yrotation Xrotation 
	JOINT lhipjoint
	{
		OFFSET 0.000000 0.000000 0.000000
		CHANNELS 3 Zrotation Yrotation Xrotation
		JOINT lfemur
		{
			OFFSET 1.363060 -1.794630 0.839290
			CHANNELS 3 Zrotation Yrotation Xrotation
			JOINT ltibia
			{
				OFFSET 2.448110 -6.726130 0.000000
				CHANNELS 3 Zrotation Yrotation Xrotation
				JOINT lfoot
				{
					OFFSET 2.562200 -7.039590 0.000000
					CHANNELS 3 Zrotation Yrotation Xrotation
					JOINT ltoes
					{
						OFFSET 0.157640 -0.433110 2.322550
						CHANNELS 3 Zrotation Yrotation Xrotation
						End Site
						{
							OFFSET 0.000000 0.000000 0.000000
						}
					}
				}
			}
		}
	}
	JOINT rhipjoint
	{
		OFFSET 0.000000 0.000000 0.000000
		CHANNELS 3 Zrotation Yrotation Xrotation
		JOINT rfemur
		{
			OFFSET -1.305520 -1.794630 0.839290
			CHANNELS 3 Zrotation Yrotation Xrotation
			JOINT rtibia
			{
				OFFSET -2.542530 -6.985550 0.000000
				CHANNELS 3 Zrotation Yrotation Xrotation
				JOINT rfoot
				{
					OFFSET -2.568260 -7.056230 0.000000
					CHANNELS 3 Zrotation Yrotation Xrotation
					JOINT rtoes
					{
						OFFSET -0.164730 -0.452590 2.363150
						CHANNELS 3 Zrotation Yrotation Xrotation
						End Site
						{
							OFFSET 0.000000 0.000000 0.000000
						}
					}
				}
			}
		}
	}
	JOINT lowerback
	{
		OFFSET 0.000000 0.000000 0.000000
		CHANNELS 3 Zrotation Yrotation Xrotation
		JOINT upperback
		{
			OFFSET 0.028270 2.035590 -0.193380
			CHANNELS 3 Zrotation Yrotation Xrotation
			JOINT thorax
			{
				OFFSET 0.056720 2.048850 -0.042750
				CHANNELS 3 Zrotation Yrotation Xrotation
				JOINT lowerneck
				{
					OFFSET 0.000000 0.000000 0.000000
					CHANNELS 3 Zrotation Yrotation Xrotation
					JOINT upperneck
					{
						OFFSET -0.054170 1.746240 0.172020
						CHANNELS 3 Zrotation Yrotation Xrotation
						JOINT head
						{
							OFFSET 0.104070 1.761360 -0.123970
							CHANNELS 3 Zrotation Yrotation Xrotation
							End Site
							{
								OFFSET 0.000000 0.000000 0.000000
							}
						}
					}
				}
				JOINT lclavicle
				{
					OFFSET 0.000000 0.000000 0.000000
					CHANNELS 3 Zrotation Yrotation Xrotation
					JOINT lhumerus
					{
						OFFSET 3.362410 1.200890 -0.311210
						CHANNELS 3 Zrotation Yrotation Xrotation
						JOINT lradius
						{
							OFFSET 4.983000 -0.000000 -0.000000
							CHANNELS 3 Zrotation Yrotation Xrotation
							JOINT lwrist
							{
								OFFSET 3.483560 -0.000000 -0.000000
								CHANNELS 3 Zrotation Yrotation Xrotation
								JOINT lhand
								{
									OFFSET 0.000000 0.000000 0.000000
									CHANNELS 3 Zrotation Yrotation Xrotation
									JOINT lfingers
									{
										OFFSET 0.715260 -0.000000 -0.000000
										CHANNELS 3 Zrotation Yrotation Xrotation
										End Site
										{
											OFFSET 0.000000 0.000000 0.000000
										}
									}
								}
								JOINT lthumb
								{
									OFFSET 0.000000 0.000000 0.000000
									CHANNELS 3 Zrotation Yrotation Xrotation
									End Site
									{
										OFFSET 0.000000 0.000000 0.000000
									}
								}
							}
						}
					}
				}
				JOINT rclavicle
				{
					OFFSET 0.000000 0.000000 0.000000
					CHANNELS 3 Zrotation Yrotation Xrotation
					JOINT rhumerus
					{
						OFFSET -3.136600 1.374050 -0.404650
						CHANNELS 3 Zrotation Yrotation Xrotation
						JOINT rradius
						{
							OFFSET -5.241900 -0.000000 -0.000000
							CHANNELS 3 Zrotation Yrotation Xrotation
							JOINT rwrist
							{
								OFFSET -3.444170 -0.000000 -0.000000
								CHANNELS 3 Zrotation Yrotation Xrotation
								JOINT rhand
								{
									OFFSET 0.000000 0.000000 0.000000
									CHANNELS 3 Zrotation Yrotation Xrotation
									JOINT rfingers
									{
										OFFSET -0.622530 -0.000000 -0.000000
										CHANNELS 3 Zrotation Yrotation Xrotation
										End Site
										{
											OFFSET 0.000000 0.000000 0.000000
										}
									}
								}
								JOINT rthumb
								{
									OFFSET 0.000000 0.000000 0.000000
									CHANNELS 3 Zrotation Yrotation Xrotation
									End Site
									{
										OFFSET 0.000000 0.000000 0.000000
									}
								}
							}
						}
					}
				}
			}
		}
	}
}
MOTION
Frames: 7
Frame Time: 0.008333
-2.020359 18.047935 1.092789 -173.962777 -2.057762 169.138170 -1.894405 3.150737 2.730988 -9.619574 7.478469 16.598824 -0.117426 -0.523337 0.364552 0.159733 0.296300 6.613207 0.385700 -3.988000 -11.042900 0.391086 -4.064107 1.562582 21.885906 7.290283 -6.317342 -1.679426 -6.905094 23.245575 1.201394 -6.705041 7.475357 -0.872600 5.955800 -16.656300 1.732193 -1.145722 15.802320 1.259898 -1.960537 -3.711101 5.262078 -0.764378 -0.495202 -8.806457 -5.901336 -5.770415 -1.522330 -6.212340 5.364810 4.365100 -2.942000 3.066200 -2.535706 1.667568 -0.589494 -21.438930 -1.613340 -7.188579 53.575708 -55.715293 -32.389832 0.513584 -1.205222 98.452266 15.071514 14.932016 3.512000 -7.125000 0.000000 0.000000 -12.451100 44.332100 0.208600 3.361722 0.651262 2.843499 30.313865 -9.777887 -14.688761 -94.050060 56.757839 -60.150612 0.693311 -1.746383 -29.097664 -30.710531 6.004137 -4.805900 7.125000 0.000000 0.000000 -2.617700 -20.483500 -1.537700 
-1.999142 18.044962 1.039902 -173.931422 -2.342550 169.078521 -1.873996 3.154845 2.739432 -9.533214 7.292130 16.860819 -0.116826 -0.516127 0.360490 0.173372 0.211318 6.536104 0.422600 -4.172400 -11.562100 0.396449 -4.067295 1.566213 21.952970 7.446192 -6.034186 -1.664346 -6.865786 23.139009 1.210827 -6.729527 7.416566 -0.816900 5.767400 -16.111000 1.723965 -1.221507 15.676350 1.252376 -2.051110 -3.721499 5.379129 -0.804642 -0.548512 -8.930682 -5.917677 -5.437406 -1.596785 -6.249203 5.492484 4.376800 -2.989700 3.061100 -2.607449 1.628447 -0.562707 -18.339435 -2.770590 -7.824525 53.536461 -55.429123 -32.321008 0.580329 -1.298629 97.429815 15.079231 15.876924 3.702300 -7.125000 0.000000 0.000000 -12.784200 45.217400 -0.069800 3.490943 0.658643 2.770966 27.009748 -8.706388 -15.705560 -94.110447 56.856898 -60.309180 0.637722 -1.658634 -28.895908 -31.689306 6.238852 -5.076300 7.125000 0.000000 0.000000 -3.305000 -20.231900 -1.961400 
-1.977721 18.042400 0.985273 -173.904044 -2.628460 169.049146 -1.854488 3.157889 2.747648 -9.454160 7.100093 17.093270 -0.116452 -0.509077 0.356582 0.187319 0.120845 6.444566 0.472500 -4.408500 -12.228700 0.401463 -4.069836 1.569182 22.016825 7.581242 -5.791333 -1.658227 -6.843994 23.085242 1.225512 -6.773653 7.313736 -0.735500 5.479100 -15.280300 1.710353 -1.304472 15.508184 1.246785 -2.151435 -3.732634 5.500571 -0.847922 -0.594120 -9.076338 -5.923713 -5.092130 -1.668393 -6.270579 5.619967 4.395700 -3.029500 3.050600 -2.653645 1.584081 -0.522029 -15.350645 -3.912552 -8.722617 53.148878 -55.052202 -31.950194 0.641803 -1.383886 96.841872 15.266288 16.613613 3.894700 -7.125000 0.000000 0.000000 -12.895500 45.915200 -0.296200 3.595290 0.676571 2.677411 23.866565 -7.615974 -16.824206 -93.768681 57.022601 -60.021445 0.584931 -1.596351 -28.784080 -32.618614 6.676162 -5.487000 7.125000 0.000000 0.000000 -3.922000 -19.710700 -2.375000 
-1.954762 18.040453 0.927774 -173.877376 -2.908242 169.002490 -1.833084 3.160820 2.753746 -9.366422 6.917224 17.349997 -0.115877 -0.501727 0.352461 0.200846 0.035307 6.359271 0.523700 -4.638000 -12.878800 0.406772 -4.072747 1.571034 22.091199 7.664427 -5.541302 -1.657886 -6.832709 23.065401 1.239711 -6.815373 7.205377 -0.666200 5.220000 -14.537100 1.699381 -1.371400 15.336958 1.236713 -2.234148 -3.737030 5.583770 -0.881078 -0.627469 -9.163726 -5.954462 -4.712139 -1.759301 -6.328170 5.730500 4.390800 -3.083100 3.017400 -2.672007 1.537720 -0.465213 -12.427898 -5.073543 -9.828136 52.553218 -54.630452 -31.393628 0.698569 -1.462188 96.602508 15.554509 17.069992 4.054200 -7.125000 0.000000 0.000000 -12.823900 46.345300 -0.432800 3.678767 0.707143 2.568829 20.911988 -6.540090 -18.095481 -93.127065 57.244144 -59.408184 0.534720 -1.552624 -28.776301 -33.366697 7.286280 -5.995400 7.125000 0.000000 0.000000 -4.377100 -18.976300 -2.723800 
-1.930881 18.038813 0.867610 -173.874597 -3.183797 168.966374 -1.814908 3.164239 2.760464 -9.295594 6.743196 17.607304 -0.115229 -0.494982 0.348195 0.213728 -0.053038 6.242224 0.575200 -4.856700 -13.500400 0.409573 -4.075511 1.572452 22.160828 7.724629 -5.303954 -1.663920 -6.832108 23.077251 1.263620 -6.900003 7.070219 -0.604500 4.976800 -13.842300 1.632966 -1.441246 15.148953 1.235507 -2.325521 -3.743687 5.743306 -0.920249 -0.667445 -9.343061 -5.967624 -4.320928 -1.830375 -6.355847 5.838765 4.415000 -3.122400 2.983400 -2.671832 1.485645 -0.396498 -9.639622 -6.176271 -11.124167 51.805812 -54.178990 -30.712743 0.749618 -1.534430 96.471123 16.027941 17.207972 4.196800 -7.125000 0.000000 0.000000 -12.479300 46.485900 -0.464700 3.746614 0.746275 2.434204 17.915414 -5.448138 -19.340590 -92.247602 57.518128 -58.522253 0.488358 -1.524252 -28.870636 -34.064719 7.952644 -6.559100 7.125000 0.000000 0.000000 -4.775500 -18.150200 -3.061000 
-1.906078 18.037378 0.805089 -173.844949 -3.451582 168.928841 -1.794961 3.167045 2.766737 -9.192100 6.571304 17.870369 -0.114586 -0.487388 0.343894 0.228080 -0.146808 6.137495 0.630600 -5.081100 -14.140100 0.412429 -4.079190 1.573655 22.266175 7.691426 -5.093273 -1.673853 -6.838645 23.116368 1.278025 -6.942707 6.951453 -0.564100 4.810600 -13.369100 1.602776 -1.502912 14.945329 1.230964 -2.403684 -3.747999 5.854976 -0.949284 -0.696321 -9.482924 -5.983529 -3.947577 -1.896607 -6.392766 5.964909 4.430700 -3.166500 2.961300 -2.651260 1.427286 -0.318425 -6.906407 -7.255921 -12.555025 51.049587 -53.739721 -30.005161 0.798286 -1.597707 96.357660 16.521623 17.198345 4.312300 -7.125000 0.000000 0.000000 -12.062800 46.484600 -0.448400 3.799606 0.794087 2.279190 14.955427 -4.406354 -20.602898 -91.228797 57.828145 -57.499979 0.445683 -1.501072 -29.034060 -34.686902 8.574015 -7.097500 7.125000 0.000000 0.000000 -5.116400 -17.370400 -3.369100 
-1.880249 18.036250 0.740825 -173.837622 -3.728500 168.896009 -1.775725 3.169033 2.771407 -9.107994 6.393346 18.132998 -0.113944 -0.479832 0.339525 0.242179 -0.237225 6.041117 0.691600 -5.316500 -14.813600 0.414661 -4.081946 1.573032 22.360482 7.630686 -4.900301 -1.690627 -6.857870 23.192902 1.298798 -7.012411 6.802382 -0.528500 4.658600 -12.937400 1.536462 -1.561436 14.727353 1.228737 -2.483937 -3.747858 5.973236 -0.980377 -0.703423 -9.614227 -6.006932 -3.583666 -1.966879 -6.437941 6.071477 4.438300 -3.210400 2.926900 -2.614384 1.373041 -0.232688 -4.415316 -8.288506 -14.249450 50.449563 -53.387976 -29.436365 0.840505 -1.654165 96.349842 17.197740 16.986922 4.431300 -7.125000 0.000000 0.000000 -11.412900 46.307300 -0.373000 3.839187 0.845569 2.114148 12.172854 -3.350385 -22.016767 -90.336890 58.141631 -56.588940 0.406770 -1.480950 -29.071533 -35.114135 9.100101 -7.537000 7.125000 0.000000 0.000000 -5.331600 -16.722000 -3.587800 
